<?xml version="1.0" encoding="UTF-8" standalone="no"?>
<!-- Created with Inkscape (http://www.inkscape.org/) -->

<svg
   xmlns:dc="http://purl.org/dc/elements/1.1/"
   xmlns:cc="http://creativecommons.org/ns#"
   xmlns:rdf="http://www.w3.org/1999/02/22-rdf-syntax-ns#"
   xmlns:svg="http://www.w3.org/2000/svg"
   xmlns="http://www.w3.org/2000/svg"
   xmlns:sodipodi="http://sodipodi.sourceforge.net/DTD/sodipodi-0.dtd"
   xmlns:inkscape="http://www.inkscape.org/namespaces/inkscape"
   width="176.83276mm"
   height="97.931366mm"
   viewBox="0 0 626.57278 347.0009"
   id="svg2"
   version="1.1"
   inkscape:version="0.91 r13725"
   sodipodi:docname="drawing-1.svg">
  <defs
     id="defs4" />
  <sodipodi:namedview
     id="base"
     pagecolor="#ffffff"
     bordercolor="#666666"
     borderopacity="1.0"
     inkscape:pageopacity="0.0"
     inkscape:pageshadow="2"
     inkscape:zoom="1.4142136"
     inkscape:cx="211.4617"
     inkscape:cy="170.74658"
     inkscape:document-units="px"
     inkscape:current-layer="layer1"
     showgrid="false"
     inkscape:window-width="1436"
     inkscape:window-height="855"
     inkscape:window-x="4"
     inkscape:window-y="1"
     inkscape:window-maximized="1"
     fit-margin-top="10"
     fit-margin-bottom="10"
     fit-margin-right="27"
     fit-margin-left="27" />
  <metadata
     id="metadata7">
    <rdf:RDF>
      <cc:Work
         rdf:about="">
        <dc:format>image/svg+xml</dc:format>
        <dc:type
           rdf:resource="http://purl.org/dc/dcmitype/StillImage" />
        <dc:title></dc:title>
      </cc:Work>
    </rdf:RDF>
  </metadata>
  <g
     inkscape:label="Layer 1"
     inkscape:groupmode="layer"
     id="layer1"
     transform="translate(-67.035789,-680.95952)">
    <g
       id="g4247"
       transform="translate(0,265)">
      <g
         id="g4202">
        <path
           sodipodi:nodetypes="ssscccssscccs"
           inkscape:connector-curvature="0"
           style="color:#000000;font-style:normal;font-variant:normal;font-weight:normal;font-stretch:normal;font-size:medium;line-height:normal;font-family:sans-serif;text-indent:0;text-align:start;text-decoration:none;text-decoration-line:none;text-decoration-style:solid;text-decoration-color:#000000;letter-spacing:normal;word-spacing:normal;text-transform:none;direction:ltr;block-progression:tb;writing-mode:lr-tb;baseline-shift:baseline;text-anchor:start;white-space:normal;clip-rule:nonzero;display:inline;overflow:visible;visibility:visible;opacity:1;isolation:auto;mix-blend-mode:normal;color-interpolation:sRGB;color-interpolation-filters:linearRGB;solid-color:#000000;solid-opacity:1;fill:#000000;fill-opacity:1;fill-rule:nonzero;stroke:none;stroke-width:14;stroke-linecap:butt;stroke-linejoin:round;stroke-miterlimit:4;stroke-dasharray:none;stroke-dashoffset:0;stroke-opacity:1;color-rendering:auto;image-rendering:auto;shape-rendering:auto;text-rendering:auto;enable-background:accumulate"
           d="m 300.51953,451.89844 c -76.03008,0 -137.81445,61.78437 -137.81445,137.81445 0,76.03008 61.78437,137.81445 137.81445,137.81445 29.16532,0 58.5607,-8.67119 79.7793,-25.11523 l 0,-18.80664 -0.1211,0.0957 c -17.69954,18.44307 -48.96185,29.82617 -79.6582,29.82617 -68.46392,0 -123.81445,-55.35053 -123.81445,-123.81445 0,-68.46392 55.35053,-123.81445 123.81445,-123.81445 39.83305,0 69.28705,14.87044 79.76563,28.46484 l 0.0371,-0.15234 0,-19.36133 c -17.36724,-13.57397 -45.28888,-22.95117 -79.80273,-22.95117 z"
           id="path4166" />
        <path
           style="color:#000000;font-style:normal;font-variant:normal;font-weight:normal;font-stretch:normal;font-size:medium;line-height:normal;font-family:sans-serif;text-indent:0;text-align:start;text-decoration:none;text-decoration-line:none;text-decoration-style:solid;text-decoration-color:#000000;letter-spacing:normal;word-spacing:normal;text-transform:none;direction:ltr;block-progression:tb;writing-mode:lr-tb;baseline-shift:baseline;text-anchor:start;white-space:normal;clip-rule:nonzero;display:inline;overflow:visible;visibility:visible;opacity:1;isolation:auto;mix-blend-mode:normal;color-interpolation:sRGB;color-interpolation-filters:linearRGB;solid-color:#000000;solid-opacity:1;fill:#cc0000;fill-opacity:1;fill-rule:nonzero;stroke:none;stroke-width:14;stroke-linecap:butt;stroke-linejoin:round;stroke-miterlimit:4;stroke-dasharray:none;stroke-dashoffset:0;stroke-opacity:1;color-rendering:auto;image-rendering:auto;shape-rendering:auto;text-rendering:auto;enable-background:accumulate"
           d="m 460.125,451.39258 c -22.52516,0 -42.48661,4.97741 -58.19336,11.73437 -8.54821,3.6774 -15.80309,7.39235 -21.63477,11.70508 l -0.008,19.54297 c 6.80533,-6.20586 13.36184,-12.44402 27.17578,-18.38672 14.03586,-6.03816 32.20546,-10.5957 52.66016,-10.5957 68.46391,0 123.81444,55.35054 123.81445,123.81445 0,68.46392 -55.35053,123.81445 -123.81445,123.81445 -13.71596,0 -31.32458,-3.76977 -46.64648,-9.50976 -15.32191,-5.73999 -28.45974,-13.9035 -33.16602,-19.91602 l -0.0234,0.0176 0,18.78711 c 7.7874,5.5387 17.59483,10.21875 28.27735,14.2207 16.68103,6.24916 35.37004,10.40039 51.55859,10.40039 76.03008,0 137.81445,-61.78437 137.81445,-137.81445 -10e-6,-76.03007 -61.78438,-137.81445 -137.81445,-137.81445 z"
           id="path4166-3"
           inkscape:connector-curvature="0"
           sodipodi:nodetypes="csccssssscccssssc" />
      </g>
      <path
         sodipodi:nodetypes="cccccccccc"
         inkscape:connector-curvature="0"
         id="path4208"
         d="m 380.27267,506.74169 0.007,32.02589 69.84926,-0.041 -12.07618,0.0996 0,134.34961 42.60352,0 0,-134.46875 56.56836,-0.0332 0,-31.84375 z"
         style="fill:#cc0000;fill-opacity:1;fill-rule:evenodd;stroke:none;stroke-width:1px;stroke-linecap:butt;stroke-linejoin:miter;stroke-opacity:1" />
      <path
         sodipodi:nodetypes="ccccccccccc"
         inkscape:connector-curvature="0"
         id="path4231"
         d="m 380.26112,506.75107 -62.2303,0 c -35.72324,26.14141 -37.8704,48.32507 -42.5755,70.36114 l 0,-70.34663 -41.5,0 0,166.40577 41.625,0 0,-81.30914 c 8.3927,41.29612 33.02188,63.07515 61.18306,81.30805 l 67.28033,0 C 333.9601,641.22111 260.54491,569.74373 380.26112,506.75107 Z"
         style="fill:#000000;fill-opacity:1;fill-rule:evenodd;stroke:none;stroke-width:1;stroke-linecap:butt;stroke-linejoin:miter;stroke-miterlimit:4;stroke-dasharray:none;stroke-opacity:1" />
    </g>
  </g>
</svg>
